#!OML:ASF I:\Actors\actors\Patient Classification 2\Patient 1\Session 1\actor1.ASF
:FULLY-SPECIFIED
:DEGREES
192
root -0.980626 17.9958 6.16614 -1.3524 -22.6814 -7.63327
lowerback 3.91781 -1.77116 0.747841
upperback -3.97124 -2.23178 1.77459
thorax -6.28377 -1.09678 1.63662
lowerneck -14.7168 -0.818509 4.94926
upperneck 31.7641 -3.8266 2.50934
head 13.0857 -0.85526 -0.492257
rclavicle 7.17613e-014 1.23246e-014
rhumerus 48.7282 -34.6228 -55.556
rradius 104.33
rwrist -17.5842
rhand -43.4309 -39.1982
rfingers 7.12502
rthumb -16.2733 -68.5353
lclavicle 7.17613e-014 1.23246e-014
lhumerus -5.27444 -12.7314 87.9424
lradius 59.7692
lwrist 29.535
lhand -13.0061 -15.8979
lfingers 7.12502
lthumb 13.0873 13.6715
rfemur 14.1086 8.77796 23.5443
rtibia -7.06383
rfoot -6.55519 -4.78068
rtoes 8.33045
lfemur 27.86 -3.99651 -12.6955
ltibia -20.0302
lfoot -11.0786 29.552
ltoes 4.25947
193
root -0.961589 17.9986 6.15493 -1.28801 -22.9445 -7.61087
lowerback 3.53376 -1.64703 0.697773
upperback -3.45956 -2.08479 1.70808
thorax -5.52708 -1.02726 1.55333
lowerneck -15.4142 -0.844701 5.02137
upperneck 31.5268 -3.96133 2.64912
head 13.1385 -0.88036 -0.476815
rclavicle 8.27938e-014 0
rhumerus 50.3961 -34.3096 -56.7226
rradius 101.324
rwrist -19.1733
rhand -42.3678 -40.1063
rfingers 7.12502
rthumb -15.2495 -69.5242
lclavicle 8.27938e-014 0
lhumerus -4.29216 -12.8773 87.8157
lradius 59.717
lwrist 29.6668
lhand -13.0218 -15.7806
lfingers 7.12502
lthumb 13.0722 13.7898
rfemur 13.8695 9.08461 23.5096
rtibia -6.93418
rfoot -6.57826 -4.8793
rtoes 8.22385
lfemur 27.7913 -4.05341 -12.8475
ltibia -20.0045
lfoot -11.3858 29.8084
ltoes 5.07566
194
root -0.945194 18.0029 6.14106 -1.18959 -23.1839 -7.62724
lowerback 3.64413 -1.73531 0.568304
upperback -3.17127 -2.2013 1.95741
thorax -5.27113 -1.0765 1.88985
lowerneck -16.426 -0.713196 4.49039
upperneck 31.7319 -3.72034 2.7542
head 13.4562 -0.799074 -0.316044
rclavicle -3.5334e-014 7.15625e-015
rhumerus 52.3722 -33.1753 -57.8152
rradius 98.3442
rwrist -20.9741
rhand -41.3943 -41.0125
rfingers 7.12502
rthumb -14.3116 -70.4993
lclavicle -3.5334e-014 7.15625e-015
lhumerus -3.72961 -11.9776 88.0111
lradius 59.7537
lwrist 29.5571
lhand -12.9565 -15.6714
lfingers 7.12502
lthumb 13.1351 13.8949
rfemur 13.5918 9.36871 23.5024
rtibia -6.76794
rfoot -6.60369 -4.93846
rtoes 8.00326
lfemur 27.69 -4.04902 -12.9143
ltibia -19.9917
lfoot -11.5603 29.991
ltoes 5.46396
195
root -0.9311 18.0097 6.12491 -1.0368 -23.3881 -7.65319
lowerback 3.69004 -1.57163 0.56778
upperback -3.18206 -1.98703 1.82939
thorax -5.31858 -0.972302 1.74198
lowerneck -16.4599 -0.829274 4.69666
upperneck 31.7287 -4.00365 2.87627
head 13.463 -0.881204 -0.349365
rclavicle 6.16232e-014 2.54444e-014
rhumerus 52.8311 -32.6413 -58.1459
rradius 95.6013
rwrist -22.8682
rhand -40.2289 -42.3142
rfingers 7.12502
rthumb -13.1885 -71.877
lclavicle 6.16232e-014 2.54444e-014
lhumerus -3.78231 -12.2716 88.0754
lradius 59.8323
lwrist 29.6253
lhand -12.8959 -15.6884
lfingers 7.12502
lthumb 13.1936 13.8741
rfemur 13.2466 9.62308 23.4838
rtibia -6.59884
rfoot -6.65133 -4.98154
rtoes 8.02018
lfemur 27.5123 -4.00583 -12.9362
ltibia -19.9881
lfoot -11.62 30.1443
ltoes 5.41774
196
root -0.917573 18.0146 6.1084 -0.945706 -23.5243 -7.63089
lowerback 3.76705 -1.45776 0.55228
upperback -3.17627 -1.83917 1.72282
thorax -5.36287 -0.900124 1.63038
lowerneck -16.4185 -0.904244 4.7175
upperneck 31.6247 -4.18948 3.10643
head 13.4172 -0.932493 -0.291811
rclavicle 1.09332e-014 6.36111e-015
rhumerus 53.2546 -31.971 -58.3952
rradius 92.9734
rwrist -24.6575
rhand -39.039 -43.435
rfingers 7.12502
rthumb -12.0412 -73.0686
lclavicle 1.09332e-014 6.36111e-015
lhumerus -3.79453 -12.5367 88.111
lradius 59.8738
lwrist 29.7367
lhand -12.7318 -15.8221
lfingers 7.12502
lthumb 13.3517 13.7302
rfemur 12.9739 9.80893 23.4205
rtibia -6.46595
rfoot -6.7121 -5.01675
rtoes 8.28072
lfemur 27.3563 -3.94781 -12.9911
ltibia -19.9757
lfoot -11.5747 30.2577
ltoes 4.97532
197
root -0.903861 18.0158 6.09317 -0.901891 -23.6371 -7.59415
lowerback 3.82218 -1.3537 0.564447
upperback -3.13429 -1.70329 1.62246
thorax -5.35662 -0.835122 1.50886
lowerneck -16.4658 -0.973574 4.75325
upperneck 31.5972 -4.34329 3.2199
head 13.4192 -0.979915 -0.278488
rclavicle 5.82439e-014 -2.54444e-014
rhumerus 53.6622 -31.2271 -58.6391
rradius 90.4126
rwrist -26.3481
rhand -38.1454 -44.2556
rfingers 7.12502
rthumb -11.1795 -73.9378
lclavicle 5.82439e-014 -2.54444e-014
lhumerus -3.76896 -12.6529 88.235
lradius 59.9182
lwrist 29.7224
lhand -12.6417 -15.8557
lfingers 7.12502
lthumb 13.4385 13.6908
rfemur 12.7758 9.9671 23.3578
rtibia -6.35387
rfoot -6.71328 -5.04484
rtoes 8.45919
lfemur 27.2455 -3.9404 -13.0827
ltibia -19.953
lfoot -11.5715 30.388
ltoes 4.66173
198
root -0.892907 18.0159 6.07917 -0.880706 -23.7823 -7.52966
lowerback 3.83648 -1.23931 0.519574
upperback -3.07792 -1.5576 1.53002
thorax -5.30984 -0.763146 1.42512
lowerneck -16.5723 -1.05717 4.82385
upperneck 31.6186 -4.50728 3.24463
head 13.4508 -1.03706 -0.308354
rclavicle -6.70898e-014 -2.38542e-015
rhumerus 53.9778 -30.4287 -58.827
rradius 87.9413
rwrist -27.7049
rhand -37.1624 -45.5713
rfingers 7.12502
rthumb -10.2313 -75.3025
lclavicle -6.70898e-014 -2.38542e-015
lhumerus -3.76411 -12.6401 88.4275
lradius 59.9532
lwrist 29.5771
lhand -12.6407 -15.7481
lfingers 7.12502
lthumb 13.4395 13.7983
rfemur 12.5934 10.1564 23.2753
rtibia -6.22247
rfoot -6.73744 -5.06557
rtoes 8.50814
lfemur 27.1659 -3.98718 -13.2194
ltibia -19.9353
lfoot -11.7386 30.5354
ltoes 5.12173
199
root -0.885178 18.0177 6.06405 -0.886771 -23.8979 -7.48485
lowerback 3.87123 -1.1454 0.449894
upperback -3.0082 -1.43998 1.45242
thorax -5.25904 -0.703873 1.37337
lowerneck -16.5845 -1.15296 4.81858
upperneck 31.5264 -4.68813 3.38437
head 13.4191 -1.10061 -0.281758
rclavicle -9.93923e-015 1.94809e-014
rhumerus 54.232 -29.6179 -58.9309
rradius 85.4929
rwrist -28.8569
rhand -35.7188 -47.1116
rfingers 7.12502
rthumb -8.83843 -76.9065
lclavicle -9.93923e-015 1.94809e-014
lhumerus -3.75802 -12.6463 88.5445
lradius 59.9359
lwrist 29.504
lhand -12.5378 -15.7256
lfingers 7.12502
lthumb 13.5387 13.8143
rfemur 12.44 10.3138 23.2163
rtibia -6.08326
rfoot -6.8174 -5.07801
rtoes 8.55549
lfemur 27.1115 -4.00062 -13.3006
ltibia -19.9244
lfoot -11.8315 30.6265
ltoes 5.50407
200
root -0.877318 18.0203 6.04732 -0.878832 -23.9344 -7.5119
lowerback 3.98487 -1.0584 0.489539
upperback -2.9694 -1.32347 1.37288
thorax -5.28821 -0.64887 1.26098
lowerneck -16.5554 -1.27156 4.76357
upperneck 31.431 -4.90571 3.58988
head 13.3812 -1.17832 -0.226398
rclavicle -6.62947e-014 5.96354e-015
rhumerus 54.3332 -28.8199 -58.9
rradius 83.0836
rwrist -30.2957
rhand -33.7667 -48.4268
rfingers 7.12502
rthumb -6.95439 -78.2926
lclavicle -6.62947e-014 5.96354e-015
lhumerus -3.78343 -12.7676 88.6318
lradius 59.8871
lwrist 29.5513
lhand -12.5568 -15.8937
lfingers 7.12502
lthumb 13.5203 13.6474
rfemur 12.2874 10.3902 23.2238
rtibia -5.93652
rfoot -6.87296 -5.07064
rtoes 8.6314
lfemur 27.0577 -4.04232 -13.2915
ltibia -19.9234
lfoot -11.8944 30.6951
ltoes 5.84661
201
root -0.868771 18.0228 6.02957 -0.873053 -23.9192 -7.52042
lowerback 4.14407 -0.976324 0.544971
upperback -2.95189 -1.21154 1.29656
thorax -5.36544 -0.596532 1.14447
lowerneck -16.5365 -1.36335 4.74489
upperneck 31.359 -5.07292 3.72534
head 13.3525 -1.23802 -0.196716
rclavicle -4.34344e-014 -2.62396e-014
rhumerus 54.2712 -27.9748 -58.661
rradius 80.7466
rwrist -31.7742
rhand -31.1095 -49.8258
rfingers 7.12502
rthumb -4.38885 -79.7603
lclavicle -4.34344e-014 -2.62396e-014
lhumerus -3.83345 -12.8933 88.7583
lradius 59.8472
lwrist 29.5626
lhand -12.784 -16.0027
lfingers 7.12502
lthumb 13.3014 13.5528
rfemur 12.0979 10.418 23.2004
rtibia -5.72247
rfoot -6.94433 -5.03053
rtoes 8.74263
lfemur 26.9992 -4.09612 -13.2929
ltibia -19.9492
lfoot -11.9662 30.7046
ltoes 6.4558
202
root -0.861361 18.0239 6.01096 -0.88056 -23.9057 -7.50958
lowerback 4.19294 -0.930474 0.522417
upperback -2.86036 -1.15254 1.28074
thorax -5.29817 -0.566864 1.13508
lowerneck -16.5151 -1.36655 4.72649
upperneck 31.23 -5.08382 3.80611
head 13.2969 -1.2383 -0.163329
rclavicle 1.80894e-014 7.95139e-016
rhumerus 54.3717 -27.0126 -58.4362
rradius 78.3552
rwrist -32.592
rhand -32.3536 -50.3741
rfingers 7.12502
rthumb -5.59014 -80.2804
lclavicle 1.80894e-014 7.95139e-016
lhumerus -3.81738 -12.9126 88.8652
lradius 59.8573
lwrist 29.5809
lhand -12.993 -15.9559
lfingers 7.12502
lthumb 13.1 13.6127
rfemur 11.9047 10.447 23.1621
rtibia -5.47019
rfoot -7.01542 -4.98102
rtoes 8.63978
lfemur 26.9457 -4.06497 -13.2897
ltibia -19.9925
lfoot -11.8642 30.6605
ltoes 6.53189
203
root -0.856038 18.0235 5.99453 -0.890515 -23.8815 -7.52871
lowerback 4.1932 -0.91168 0.543275
upperback -2.78137 -1.12681 1.27994
thorax -5.21642 -0.555064 1.11903
lowerneck -16.4497 -1.33623 4.72974
upperneck 31.1767 -5.0367 3.82867
head 13.2612 -1.21701 -0.146691
rclavicle -7.0171e-014 -6.36111e-015
rhumerus 54.5319 -25.9164 -58.4058
rradius 75.9017
rwrist -32.8179
rhand -31.6977 -51.4423
rfingers 7.12502
rthumb -4.95689 -81.3643
lclavicle -7.0171e-014 -6.36111e-015
lhumerus -3.85754 -12.9299 88.9341
lradius 59.8383
lwrist 29.6212
lhand -12.9773 -15.9529
lfingers 7.12502
lthumb 13.1151 13.6147
rfemur 11.7924 10.4592 23.1744
rtibia -5.31575
rfoot -7.03147 -4.95822
rtoes 8.28801
lfemur 26.9019 -4.01312 -13.2461
ltibia -20.0161
lfoot -11.6913 30.6201
ltoes 6.19055
